<svg xmlns="http://www.w3.org/2000/svg" viewBox="0 0 1462 1484"><defs><style>.cls-1{isolation:isolate;}.cls-2,.cls-6{fill:#2c99b8;}.cls-3,.cls-6,.cls-8{mix-blend-mode:multiply;}.cls-4{fill:#5ec0dc;}.cls-5{fill:#fff;}.cls-7{fill:#b9d9ef;}.cls-8{fill:#3499cc;}.cls-9{fill:#76b7e2;opacity:0.54;}.cls-10{fill:#e3e6f7;}.cls-11{fill:none;stroke:#61587d;}</style></defs><g class="cls-1"><g id="_1" data-name=" 1"><rect class="cls-2" x="-898" y="-232.95" width="3793" height="2416.04"/><g class="cls-3"><rect class="cls-4" x="-898" y="-232.95" width="3793" height="2416.04"/></g><g class="cls-3"><path class="cls-2" d="M2360.65,226.59a1909.78,1909.78,0,0,1-32.6,351.95,1853.15,1853.15,0,0,1-93.53,328,1801.33,1801.33,0,0,1-148,296.85,1737.49,1737.49,0,0,1-196.14,258.74,1657.43,1657.43,0,0,1-237.85,213.59,1572.29,1572.29,0,0,1-273.18,161.38,1506.83,1506.83,0,0,1-302,102,1495.64,1495.64,0,0,1-648.58,0,1507,1507,0,0,1-301.07-101.6l-1-.44q-18-8.31-35.93-17.13L111,1792.85l3-4L127.39,1771q12.75,6.15,25.62,12.07c184.62,84.79,387.37,131.69,600,131.69,854.41,0,1549.53-757.33,1549.53-1688.21a1824.63,1824.63,0,0,0-57.88-457.74H2305q13.08,52.52,23.1,105.77A1910,1910,0,0,1,2360.65,226.59Z"/></g><path class="cls-5" d="M2258.27-231.15q17.3,63.43,29.82,128.08a1806.92,1806.92,0,0,1,0,683.37,1758.26,1758.26,0,0,1-93.54,318.37,1729.4,1729.4,0,0,1-148,288.18A1692.27,1692.27,0,0,1,1850.37,1438a1641.65,1641.65,0,0,1-237.84,207.35,1584.45,1584.45,0,0,1-273.18,156.67,1533.45,1533.45,0,0,1-1252.65,0q-18-8.08-35.94-16.63L87.43,1738c191.42,89.69,403.11,139.55,625.59,139.55,854.42,0,1549.54-735.21,1549.54-1638.91a1720.76,1720.76,0,0,0-64.87-469.76Z"/><ellipse class="cls-6" cx="741.16" cy="745.99" rx="720.66" ry="733.34"/><path class="cls-4" d="M1435.85,729.69a713.09,713.09,0,0,1-67.08,303c-114.09,243.9-361.69,412.88-648.75,412.88a712.4,712.4,0,0,1-376.28-106.77A715.6,715.6,0,0,1,4.2,729.69c0-337.16,233.1-619.87,546.93-695.78A717.06,717.06,0,0,1,720,13.86q25,0,49.5,1.69c239.37,16.35,446.41,150.37,563.73,344.66A712.46,712.46,0,0,1,1435.85,729.69Z"/><path class="cls-7" d="M496.77,300C434.56,413,324.76,448.52,238.31,535.4,174.83,599.21,134,664.08,116.69,752.77c-10.41,53.31-14.32,107.63-8.58,161.69,6.28,59.14,26.76,137.13,6.82,197.85A712.44,712.44,0,0,1,4.2,729.69c0-337.16,233.1-619.87,546.93-695.78,6.73,17.75,11.73,36,13.64,54.92C572.57,166.23,532.58,234.87,496.77,300Z"/><path class="cls-8" d="M1059.73,1206c-33.71,0-61.74-16.42-78.92-46.24L761.47,781H754v335.77a86.37,86.37,0,0,1-27.36,63.78A89.85,89.85,0,0,1,663.41,1206,89.11,89.11,0,0,1,574,1116.77V347H962.25c51.1,0,95.65,18.76,132.43,55.75S1150,484.49,1150,535.88v56.24c0,51.77-18.47,96.65-54.89,133.39-34.91,35.19-77.19,53.8-125.76,55.38l165.71,285.55c9.91,16.37,14.94,33.5,14.94,50.92,0,24.37-9.65,46.31-27.91,63.45-17.51,16.46-39,25.18-62,25.19ZM962.92,603c3,0,4.4-.56,6.44-2.6,1.82-1.83,2.64-3.23,2.64-6.67V536.27c0-3.42-.82-4.83-2.67-6.68-2-2-3.4-2.59-6.41-2.59H754v76Z"/><path class="cls-5" d="M994.73,1185c-37.44,0-68.55-18.2-87.59-51.25L699,774.32v311.45c0,27.41-10.53,52-30.44,71A99.68,99.68,0,0,1,598.41,1185,99.12,99.12,0,0,1,499,1085.77V306H897.25c53.86,0,100.8,19.75,139.52,58.7S1095,450.75,1095,504.88v56.24c0,54.5-19.44,101.75-57.79,140.43-32.78,33-71.8,52.23-116.18,57.17l157.63,271.62c10.84,17.93,16.34,36.78,16.34,56,0,27.2-10.74,51.66-31.06,70.74-19.41,18.24-43.22,27.89-68.86,27.9h-.35ZM897,562V506H699v56Z"/><path class="cls-5" d="M994.73,1175c-33.71,0-61.74-16.42-78.92-46.24L696.47,750H689v335.77a86.37,86.37,0,0,1-27.36,63.78A89.85,89.85,0,0,1,598.41,1175,89.11,89.11,0,0,1,509,1085.77V316H897.25c51.1,0,95.65,18.76,132.43,55.75S1085,453.49,1085,504.88v56.24c0,51.77-18.47,96.65-54.89,133.39-34.91,35.19-77.19,53.8-125.76,55.38l165.71,285.55c9.91,16.37,14.94,33.5,14.94,50.92,0,24.37-9.65,46.31-27.91,63.45-17.51,16.46-39,25.18-62,25.19ZM897.92,572c3,0,4.4-.56,6.44-2.6,1.82-1.83,2.64-3.23,2.64-6.67V505.27c0-3.42-.82-4.83-2.67-6.68-2-2-3.4-2.59-6.41-2.59H689v76Z"/><path class="cls-2" d="M995.55,613.48,979.42,647a3.47,3.47,0,0,1-3.77,2,3.57,3.57,0,0,1-2.41-1.75L954.4,615.18c-9.85-16.76.7-38.66,19-39.41l.57,0h.44C992.13,575.79,1003.84,596.29,995.55,613.48Z"/><path class="cls-9" d="M995.55,613.48,979.42,647a3.47,3.47,0,0,1-3.77,2l-1.25-73.23C992.13,575.79,1003.84,596.29,995.55,613.48Z"/><path class="cls-10" d="M989.12,600.14a14.68,14.68,0,1,1-15.37-13.95A14.68,14.68,0,0,1,989.12,600.14Z"/><path class="cls-2" d="M1018.42,473.71l-16.14,33.5a3.46,3.46,0,0,1-3.77,2,3.57,3.57,0,0,1-2.41-1.75l-18.84-32c-9.85-16.76.7-38.65,19-39.41l.57,0h.44C1015,436,1026.7,456.53,1018.42,473.71Z"/><path class="cls-9" d="M1018.42,473.71l-16.14,33.5a3.46,3.46,0,0,1-3.77,2L997.26,436C1015,436,1026.7,456.53,1018.42,473.71Z"/><circle class="cls-10" cx="997.32" cy="461.08" r="14.68" transform="translate(-87.27 636.86) rotate(-34.02)"/><path class="cls-2" d="M653,687l-16.13,33.5a3.46,3.46,0,0,1-3.77,2,3.57,3.57,0,0,1-2.41-1.75l-18.84-32.05c-9.85-16.76.7-38.66,19-39.41l.57,0h.44C649.62,649.29,661.33,669.8,653,687Z"/><path class="cls-9" d="M653,687l-16.13,33.5a3.46,3.46,0,0,1-3.77,2l-1.25-73.23C649.62,649.29,661.33,669.8,653,687Z"/><circle class="cls-10" cx="631.95" cy="674.35" r="14.68" transform="translate(-100.05 1238.52) rotate(-84.48)"/><path class="cls-2" d="M886.91,802.54,870.77,836a3.46,3.46,0,0,1-3.77,2,3.51,3.51,0,0,1-2.41-1.75l-18.84-32c-9.85-16.77.7-38.66,19-39.41l.57,0h.44C883.48,764.85,895.19,785.35,886.91,802.54Z"/><path class="cls-9" d="M886.91,802.54,870.77,836a3.46,3.46,0,0,1-3.77,2l-1.25-73.22C883.48,764.85,895.19,785.35,886.91,802.54Z"/><path class="cls-10" d="M880.47,789.2a14.68,14.68,0,1,1-15.37-14A14.69,14.69,0,0,1,880.47,789.2Z"/><path class="cls-2" d="M967.12,1013.48,951,1047a3.46,3.46,0,0,1-3.77,2,3.57,3.57,0,0,1-2.41-1.75L926,1015.18c-9.86-16.76.7-38.66,19-39.41l.57,0H946C963.7,975.79,975.41,996.3,967.12,1013.48Z"/><path class="cls-9" d="M967.12,1013.48,951,1047a3.46,3.46,0,0,1-3.77,2L946,975.75C963.7,975.79,975.41,996.3,967.12,1013.48Z"/><circle class="cls-10" cx="946.03" cy="1000.85" r="14.68" transform="translate(-206.64 1754.52) rotate(-79.79)"/><path class="cls-2" d="M710,403.53,693.86,437a3.46,3.46,0,0,1-3.77,2,3.61,3.61,0,0,1-2.42-1.75l-18.83-32c-9.86-16.76.69-38.65,19-39.41h1C706.57,365.85,718.28,386.35,710,403.53Z"/><path class="cls-9" d="M710,403.53,693.86,437a3.46,3.46,0,0,1-3.77,2l-1.25-73.23C706.57,365.85,718.28,386.35,710,403.53Z"/><circle class="cls-10" cx="688.9" cy="390.9" r="14.68" transform="translate(233.55 1039.01) rotate(-84.48)"/><path class="cls-2" d="M605.39,1124.6l-16.14,33.5a3.46,3.46,0,0,1-3.77,2,3.57,3.57,0,0,1-2.41-1.75l-18.84-32c-9.85-16.76.7-38.65,19-39.41h1C602,1086.92,613.67,1107.42,605.39,1124.6Z"/><path class="cls-9" d="M605.39,1124.6l-16.14,33.5a3.46,3.46,0,0,1-3.77,2l-1.25-73.23C602,1086.92,613.67,1107.42,605.39,1124.6Z"/><circle class="cls-10" cx="584.29" cy="1111.97" r="14.68" transform="translate(-631.73 797.05) rotate(-47.76)"/><path class="cls-7" d="M1333.25,360.21c-52.63-24-98.43-62.5-155-81.44-41.8-14-84.73-19.83-125.65-36.86-46-19.14-88.25-47.12-132.64-70.16-50.69-26.32-103.19-44.22-133.75-95.47-11.85-19.86-15-40.43-16.66-60.73C1008.89,31.9,1215.93,165.92,1333.25,360.21Z"/><path class="cls-7" d="M1368.77,1032.64c-114.09,243.9-361.69,412.88-648.75,412.88a712.4,712.4,0,0,1-376.28-106.77c37.16,5.48,73.5,15.69,102,23.71,55.49,15.63,111.27,33.84,167.16,46.24,102.62,22.78,181.77,23.78,283.24-9,76-24.56,93-53.35,124.24-120.42,23.3-50,56.09-94.84,100.49-128.29,62.43-47,139.73-75.93,212.77-102.24C1341.16,1046,1354.13,1039.51,1368.77,1032.64Z"/><path class="cls-7" d="M897.92,496H689v76H897.92c3,0,4.4-.56,6.44-2.6,1.82-1.83,2.64-3.23,2.64-6.67V505.27c0-3.42-.82-4.83-2.67-6.68C902.31,496.56,900.93,496,897.92,496ZM897,562H699V506H897Z"/><path class="cls-7" d="M1095,561.12V504.88c0-54.13-19.59-101.29-58.23-140.18S951.11,306,897.25,306H499v779.77A99.12,99.12,0,0,0,598.41,1185a99.68,99.68,0,0,0,70.15-28.22c19.91-19,30.44-43.6,30.44-71V774.32l208.14,359.43c19,33,50.15,51.25,87.59,51.25h.35c25.64,0,49.45-9.66,68.86-27.9,20.32-19.08,31.06-43.54,31.06-70.74,0-19.24-5.5-38.09-16.34-56L921,758.72c44.38-4.94,83.4-24.13,116.18-57.17C1075.56,662.87,1095,615.62,1095,561.12ZM904.35,749.89l165.71,285.55c9.91,16.37,14.94,33.5,14.94,50.92,0,24.37-9.65,46.31-27.91,63.45-17.51,16.46-39,25.18-62,25.19h-.35c-33.71,0-61.74-16.42-78.92-46.24L696.47,750H689v335.77a86.37,86.37,0,0,1-27.36,63.78A89.85,89.85,0,0,1,598.41,1175,89.11,89.11,0,0,1,509,1085.77V316H897.25c51.1,0,95.65,18.76,132.43,55.75S1085,453.49,1085,504.88v56.24c0,51.77-18.47,96.65-54.89,133.39C995.2,729.7,952.92,748.31,904.35,749.89Z"/><path class="cls-11" d="M1106.47,1474.74h0Z"/><path class="cls-11" d="M1106.47,1471h0Z"/><path class="cls-11" d="M1110.93,1463.62h0Z"/><path class="cls-11" d="M1106.47,1467.33h0Z"/><path class="cls-11" d="M1110.93,1459.92h0Z"/></g></g></svg>